<?xml version="1.0" encoding="utf-8"?>
<!-- Generator: Adobe Illustrator 18.1.1, SVG Export Plug-In . SVG Version: 6.00 Build 0)  -->
<svg version="1.1" id="Capa_1" xmlns="http://www.w3.org/2000/svg" xmlns:xlink="http://www.w3.org/1999/xlink" x="0px" y="0px"
	 viewBox="226 -226.8 952.8 952.8" enable-background="new 226 -226.8 952.8 952.8" xml:space="preserve">
<g>
	<path fill="#CB2133" d="M327.7,618.5c46.9,30.1,100.7,45.9,156.3,46.2c55.6-0.3,109.4-16.1,156.3-46.2
		c41.4-26.9,75.9-63.7,99.4-107.1c3.8-7,2.9-15.7-2.2-21.8c-0.1-0.1-0.1-0.1-0.1-0.1c-22.9-26.6-53-46.4-84.9-60.6
		c-2.5-1.1-30.9-12-30.9-12.1c3.1-11,6-22.1,6.8-33.6c0.2-2.9,2.9-4.9,5.7-4.2c7.8,1.9,16.8,0.8,24.2-1c13.2-3.2,26-12.3,31.1-25.2
		c2.4-6.1,1.7-12,1.8-18.4c0,0,12.1-4.3,13.3-4.9c16.1-8.3,24.7-26.4,19.6-44.3c-2.6-9.2-8.8-17.1-16.8-22.2
		c-7.7-4.9-15.1-5.6-23.1-6c-4.3-0.2-7.9-3.4-8.8-7.7c-4.7-24.6-35.7-37.8-58.8-33.1c-18.5,3.7-33.1,17.3-36.8,35.1
		c-0.8,3.9-5.4,5.7-8.6,3.2c-4.1-3-8.1-6.1-12.5-8.7c-7.4-4.4-15.2-8.1-23.2-11c-16.4-6.1-33.8-9.2-51.3-9.2c-0.1,0-0.1,0-0.1,0
		c-0.1,0-0.1,0-0.1,0c-17.5,0-34.9,3.1-51.3,9.2c-8.1,3-15.8,6.7-23.2,11c-4.4,2.6-8.4,5.7-12.5,8.7c-3.2,2.4-7.8,0.6-8.6-3.2
		c-3.7-17.8-18.3-31.4-36.8-35.1c-23.1-4.7-54,8.6-58.8,33c-0.9,4.4-4.8,7.5-9.3,7.4c-3.8-0.1-7.5,0.1-11.5,1.2
		c-14.7,4.4-27,17.1-29.2,32.4c-2.3,16.4,6.4,31.7,20.8,39.2c1.1,0.6,13.3,4.9,13.3,4.9c0.1,6.4-0.6,12.3,1.8,18.4
		c5.1,12.9,17.9,22,31.1,25.2c7.4,1.8,16.4,2.9,24.2,1c2.8-0.6,5.5,1.4,5.7,4.2c0.8,11.4,3.6,22.5,6.8,33.6c0,0.1-28.3,11-30.9,12.1
		c-31.8,14.1-62.1,34-84.9,60.6c0,0.1-0.1,0.1-0.1,0.1c-5.1,6.1-6,14.8-2.2,21.8C251.8,554.9,286.3,591.7,327.7,618.5z M531.7,284.9
		c10.2,0,18.5,8.3,18.5,18.5c0,10.2-8.3,18.5-18.5,18.5c-10.2,0-18.5-8.3-18.5-18.5C513.1,293.2,521.4,284.9,531.7,284.9z
		 M484,323.5c21.9,0,39.6,17.8,39.6,39.6c0,21.9-17.8,39.6-39.6,39.6s-39.6-17.8-39.6-39.6C444.4,341.2,462.1,323.5,484,323.5z
		 M436.3,284.9c10.2,0,18.5,8.3,18.5,18.5c0,10.2-8.3,18.5-18.5,18.5c-10.2,0-18.5-8.3-18.5-18.5
		C417.8,293.2,426.1,284.9,436.3,284.9z M400.9,361c8.9-1.5,17.2,4.6,18.6,13.4c2.4,15.1,10.2,29,21.9,39
		c11.8,10.2,26.9,15.8,42.6,15.8c15.6,0,30.7-5.6,42.5-15.7c11.7-10,19.5-23.9,22-39c1.5-8.9,9.8-14.8,18.7-13.4
		c8.9,1.5,14.8,9.8,13.4,18.7c-3.7,22.6-15.4,43.4-32.9,58.4c-17.7,15.2-40.3,23.6-63.7,23.6c-23.4,0-46-8.4-63.7-23.6
		c-17.5-15.1-29.2-35.8-32.9-58.5C386,370.8,392,362.4,400.9,361z"/>
</g>
</svg>
