<?xml version="1.0" encoding="utf-8"?>
<!-- Generator: Adobe Illustrator 18.1.1, SVG Export Plug-In . SVG Version: 6.00 Build 0)  -->
<svg version="1.1" id="Capa_1" xmlns="http://www.w3.org/2000/svg" xmlns:xlink="http://www.w3.org/1999/xlink" x="0px" y="0px"
	 viewBox="-15 17.9 467.1 467.1" enable-background="new -15 17.9 467.1 467.1" xml:space="preserve">
<g>
	<path d="M40.7,438.8l2.9,46.2h53.9l2.8-46l0.5-0.2c1.1-0.6,2.2-1.1,3.2-1.8l-30.7-30.7h9.4l-2.5-3.8l2.5-3.8H68.8v6.5L37.1,437
		c0.7,0.4,1.8,0.9,3.2,1.6L40.7,438.8z M85.7,477.5h-8.3v-27.2h10L85.7,477.5z M72.3,406.9l19.1,33l-8.5,2.2l-12-32.8L72.3,406.9z
		 M63.8,477.5h-8.3l-1.7-27.2h10L63.8,477.5L63.8,477.5z M68.8,406.9l1.4,2.5l-12,32.7l-8.5-2.2L68.8,406.9z"/>
</g>
</svg>
